<svg xmlns="http://www.w3.org/2000/svg" xmlns:xlink="http://www.w3.org/1999/xlink" viewBox="0 0 719.8 246.47"><defs><style>.cls-1{fill:none;}.cls-2{clip-path:url(#clip-path);}.cls-3,.cls-5{fill:#0f153d;}.cls-4,.cls-7{fill:#1d93d1;}.cls-4,.cls-5,.cls-6{fill-rule:evenodd;}.cls-6{fill:#020202;}</style><clipPath id="clip-path" transform="translate(-16.42 -23.07)"><rect class="cls-1" width="794.87" height="286.87"/></clipPath></defs><g id="Layer_2" data-name="Layer 2"><g id="Layer_1-2" data-name="Layer 1"><g class="cls-2"><path class="cls-3" d="M617.45,98h39.1q19,0,28.91,8.89t9.94,25.89q0,17-9.89,25.81t-29,8.84h-39.1Zm23.65,17.19V149h11.74q9.18,0,13.17-4t4-13q0-9-4-12.92c-2.69-2.64-7.05-4-13.13-4ZM543.24,167.4V98.07h64.6v17h-41v8.26h33.19v17.09H566.88v9.12h43V167.4Zm-104.37,0V98.07h35.05l10.32,42.24,11.14-42.24h34.53V167.4H508V113.26L493.52,167.4H475.08l-14.34-54.14V167.4ZM347,132.75q0-18.07,10.36-27.3T388,96.24q20.32,0,30.68,9.21t10.36,27.3q0,18.06-10.36,27.27T388,169.22q-20.34,0-30.69-9.2T347,132.75m25.43,0c0,6,1.33,10.64,4,13.83s6.55,4.78,11.6,4.78,8.92-1.6,11.6-4.78,4-7.8,4-13.83-1.33-10.69-4-13.91S393.09,114,388,114s-8.92,1.62-11.6,4.83-4,7.86-4,13.91M290.82,128h13.77c3.6,0,6.12-.48,7.6-1.46s2.19-2.59,2.19-4.88-.69-3.82-2.08-4.7-4.14-1.35-8.29-1.35H290.82Zm22.47-30a75.34,75.34,0,0,1,12.73.86,19.23,19.23,0,0,1,7.45,2.71,14.61,14.61,0,0,1,5.22,6.16,20.94,20.94,0,0,1,1.79,8.93,21.21,21.21,0,0,1-2.68,10.8,15.48,15.48,0,0,1-7.36,6.74,12.49,12.49,0,0,1,5.68,4.75c1.08,1.89,1.71,5.24,1.91,10,0,.53.06,1.26.08,2.21q.57,13.57,3.2,15.09v1.07H315.05c-.8-1.47-1.23-4.31-1.31-8.53-.06-2.46-.15-4.37-.29-5.71q-.37-3.79-2.25-5.33t-6.28-1.56h-14.1V167.4h-24V98.07ZM186.18,167.4V98.07h45.64q12.94,0,20,5.87t7,16.61q0,10.71-7,16.59t-20,5.87h-22V167.4ZM222.78,113H209.83v15h12.95c3.86,0,6.52-.56,8-1.66s2.21-3,2.21-5.81-.73-4.72-2.21-5.84-4.12-1.67-8-1.67" transform="translate(-16.42 -23.07)"/><path class="cls-3" d="M186.11,246.41a40.24,40.24,0,0,1,5.32-.34c2.69,0,4.51.54,5.5,1.49a3.51,3.51,0,0,1,.86,3.71,6.65,6.65,0,0,1-2.66,3.81,12,12,0,0,1-7,2,11.43,11.43,0,0,1-2.15-.15L184.11,264h-2.72Zm.42,8.59a9.32,9.32,0,0,0,2.19.2c3.29,0,5.65-1.36,6.31-3.81s-1-3.5-4-3.5a13.69,13.69,0,0,0-2.62.2Z" transform="translate(-16.42 -23.07)"/><path class="cls-3" d="M202.11,255.22c.4-1.51.72-2.8.94-4h2.4l-.57,2.52H205a6.19,6.19,0,0,1,4.95-2.8,3.41,3.41,0,0,1,.76.08l-.59,2.19a4.77,4.77,0,0,0-.92-.08,5.09,5.09,0,0,0-4.49,3,6.64,6.64,0,0,0-.41,1.07L202.47,264h-2.72Z" transform="translate(-16.42 -23.07)"/><path class="cls-3" d="M226.15,257.52c-1.26,4.73-5.68,6.78-9.35,6.78-4.1,0-6.57-2.54-5.49-6.57a9.44,9.44,0,0,1,9.33-6.79c4.34,0,6.57,2.66,5.51,6.58m-12,.13c-.75,2.8.6,4.91,3.28,4.91a6.5,6.5,0,0,0,5.94-5c.58-2.17,0-4.92-3.22-4.92a6.39,6.39,0,0,0-6,5" transform="translate(-16.42 -23.07)"/><path class="cls-3" d="M232,264l3-11h-2.12l.48-1.77h2.12l.16-.6a7.52,7.52,0,0,1,3-4.47,7.33,7.33,0,0,1,4-1.19,6.08,6.08,0,0,1,2.24.38l-.85,1.79a4.16,4.16,0,0,0-1.68-.3c-2.34,0-3.41,1.75-3.94,3.71l-.18.68h3.67l-.48,1.77h-3.66l-2.95,11Z" transform="translate(-16.42 -23.07)"/><path class="cls-3" d="M244.54,258c-.79,3.15,1.25,4.43,4,4.43a13.2,13.2,0,0,0,4.37-.65l0,1.66a15.92,15.92,0,0,1-5.25.8c-4.66,0-6.75-2.59-5.71-6.45a9.25,9.25,0,0,1,8.94-6.89c5,0,5.27,3.67,4.65,6a10.27,10.27,0,0,1-.39,1.07Zm8.51-1.67c.42-1.47.3-3.77-2.8-3.77a5.89,5.89,0,0,0-5.24,3.77Z" transform="translate(-16.42 -23.07)"/><path class="cls-3" d="M262.62,261.63a6.6,6.6,0,0,0,3.38.93c2,0,3.16-.84,3.45-1.89s-.33-1.72-2.18-2.36c-2.5-.82-3.45-2.08-3-3.63.55-2.05,3-3.74,6.22-3.74a7.14,7.14,0,0,1,3.5.79l-1.13,1.69a5.49,5.49,0,0,0-2.9-.74,2.9,2.9,0,0,0-3,1.75c-.28,1.06.5,1.52,2.3,2.16,2.4.84,3.44,2,2.93,3.86-.6,2.24-3.09,3.83-6.69,3.83a8.37,8.37,0,0,1-4-.87Z" transform="translate(-16.42 -23.07)"/><path class="cls-3" d="M277.34,261.63a6.6,6.6,0,0,0,3.38.93c2,0,3.17-.84,3.45-1.89s-.32-1.72-2.18-2.36c-2.5-.82-3.44-2.08-3-3.63.55-2.05,3-3.74,6.22-3.74a7.22,7.22,0,0,1,3.51.79l-1.14,1.69a5.49,5.49,0,0,0-2.9-.74,2.9,2.9,0,0,0-3,1.75c-.28,1.06.5,1.52,2.3,2.16,2.4.84,3.45,2,2.94,3.86-.6,2.24-3.1,3.83-6.7,3.83a8.37,8.37,0,0,1-4-.87Z" transform="translate(-16.42 -23.07)"/><path class="cls-3" d="M291.79,264l3.43-12.8H298L294.54,264Zm7.46-16.39a2.09,2.09,0,0,1-2.14,1.44c-1,0-1.49-.64-1.28-1.44a2.17,2.17,0,0,1,2.12-1.45c1,0,1.52.63,1.3,1.45" transform="translate(-16.42 -23.07)"/><path class="cls-3" d="M315.7,257.52c-1.26,4.73-5.69,6.78-9.35,6.78-4.1,0-6.57-2.54-5.49-6.57a9.44,9.44,0,0,1,9.33-6.79c4.34,0,6.57,2.66,5.51,6.58m-12,.13c-.75,2.8.6,4.91,3.28,4.91a6.51,6.51,0,0,0,5.94-5c.58-2.17,0-4.92-3.23-4.92a6.39,6.39,0,0,0-6,5" transform="translate(-16.42 -23.07)"/><path class="cls-3" d="M323.73,254.68c.35-1.31.61-2.4.79-3.46H327l-.4,2.12h.06a7.71,7.71,0,0,1,5.65-2.4c2.09,0,5.07,1.05,3.89,5.43L334.11,264h-2.76l2-7.38c.55-2.06.09-3.78-2.5-3.78a5.28,5.28,0,0,0-4.32,2.39,3.4,3.4,0,0,0-.49,1.07L324,264h-2.74Z" transform="translate(-16.42 -23.07)"/><path class="cls-3" d="M349.32,264l.21-1.61h-.1a7.84,7.84,0,0,1-5.13,1.89c-3.07,0-4.14-1.83-3.65-3.66.83-3.1,4.53-4.79,10.38-4.76l.07-.27c.28-1.05.45-3-2.64-3a10.28,10.28,0,0,0-4.2.94l-.22-1.53a12.85,12.85,0,0,1,5.28-1.13c4.63,0,5,2.66,4.35,5.23L352.39,261a15.92,15.92,0,0,0-.57,3.07Zm1.34-6.53c-3-.06-6.52.4-7.18,2.88-.4,1.5.59,2.22,2,2.22a5.17,5.17,0,0,0,4.24-2.14,2.86,2.86,0,0,0,.34-.74Z" transform="translate(-16.42 -23.07)"/><polygon class="cls-3" points="351.14 222.19 353.88 222.19 348.85 240.94 346.11 240.94 351.14 222.19"/><path class="cls-3" d="M368.34,267.26A42.41,42.41,0,0,0,371.9,261l3.15-.25a43.43,43.43,0,0,1-4.7,6.41Z" transform="translate(-16.42 -23.07)"/><path class="cls-3" d="M394.26,246.41a40.53,40.53,0,0,1,5.33-.34c2.69,0,4.51.54,5.5,1.49a3.51,3.51,0,0,1,.86,3.71,6.65,6.65,0,0,1-2.66,3.81,12,12,0,0,1-7,2,11.43,11.43,0,0,1-2.15-.15L392.27,264h-2.72Zm.43,8.59a9.32,9.32,0,0,0,2.19.2c3.29,0,5.65-1.36,6.31-3.81s-1-3.5-4-3.5a13.69,13.69,0,0,0-2.62.2Z" transform="translate(-16.42 -23.07)"/><path class="cls-3" d="M410.27,255.22c.4-1.51.72-2.8.94-4h2.4l-.57,2.52h.12a6.19,6.19,0,0,1,4.95-2.8,3.41,3.41,0,0,1,.76.08l-.59,2.19a4.77,4.77,0,0,0-.92-.08,5.08,5.08,0,0,0-4.49,3,6.63,6.63,0,0,0-.42,1.07L410.62,264h-2.71Z" transform="translate(-16.42 -23.07)"/><path class="cls-3" d="M434.31,257.52c-1.26,4.73-5.68,6.78-9.35,6.78-4.1,0-6.57-2.54-5.49-6.57a9.44,9.44,0,0,1,9.33-6.79c4.34,0,6.57,2.66,5.51,6.58m-12,.13c-.75,2.8.6,4.91,3.28,4.91a6.5,6.5,0,0,0,5.94-5c.58-2.17,0-4.92-3.22-4.92a6.39,6.39,0,0,0-6,5" transform="translate(-16.42 -23.07)"/><path class="cls-3" d="M456.3,251.22c-.31.93-.63,2-1.06,3.52l-2,7.43c-.78,2.94-1.95,4.72-3.73,5.83a10.86,10.86,0,0,1-5.91,1.54,9.52,9.52,0,0,1-4.75-1.05l1.16-1.78a8.09,8.09,0,0,0,4.17,1c2.81,0,5.22-1.24,6.08-4.47l.39-1.43h-.07A7.47,7.47,0,0,1,445.2,264c-3.75,0-5.72-2.69-4.77-6.23a9.2,9.2,0,0,1,8.63-6.79c2.63,0,3.76,1.16,4.13,2.22h.06l.65-1.94Zm-4.19,5.06a3.22,3.22,0,0,0,.13-1.06c-.14-1.35-1.19-2.46-3.19-2.46a6.16,6.16,0,0,0-5.81,4.84c-.67,2.5.27,4.59,3.25,4.59a5.5,5.5,0,0,0,4.45-2.37,4.49,4.49,0,0,0,.55-1.24Z" transform="translate(-16.42 -23.07)"/><path class="cls-3" d="M463.78,255.22c.4-1.51.72-2.8.94-4h2.4l-.57,2.52h.12a6.19,6.19,0,0,1,4.95-2.8,3.41,3.41,0,0,1,.76.08l-.59,2.19a4.84,4.84,0,0,0-.92-.08,5.08,5.08,0,0,0-4.49,3,6.63,6.63,0,0,0-.42,1.07L464.13,264h-2.71Z" transform="translate(-16.42 -23.07)"/><path class="cls-3" d="M475.52,258c-.78,3.15,1.26,4.43,4,4.43a13.2,13.2,0,0,0,4.37-.65l0,1.66a15.94,15.94,0,0,1-5.26.8c-4.66,0-6.74-2.59-5.7-6.45a9.25,9.25,0,0,1,8.94-6.89c4.94,0,5.27,3.67,4.64,6a7.07,7.07,0,0,1-.39,1.07Zm8.52-1.67c.42-1.47.29-3.77-2.8-3.77a5.89,5.89,0,0,0-5.24,3.77Z" transform="translate(-16.42 -23.07)"/><path class="cls-3" d="M493.6,261.63a6.6,6.6,0,0,0,3.38.93c2,0,3.17-.84,3.45-1.89s-.32-1.72-2.17-2.36c-2.51-.82-3.45-2.08-3-3.63.54-2.05,3-3.74,6.22-3.74a7.17,7.17,0,0,1,3.5.79l-1.14,1.69a5.43,5.43,0,0,0-2.9-.74,2.9,2.9,0,0,0-3,1.75c-.29,1.06.5,1.52,2.29,2.16,2.41.84,3.45,2,2.94,3.86-.6,2.24-3.09,3.83-6.69,3.83a8.37,8.37,0,0,1-4-.87Z" transform="translate(-16.42 -23.07)"/><path class="cls-3" d="M508.33,261.63a6.6,6.6,0,0,0,3.38.93c2,0,3.16-.84,3.45-1.89s-.33-1.72-2.18-2.36c-2.5-.82-3.45-2.08-3-3.63.55-2.05,3-3.74,6.22-3.74a7.14,7.14,0,0,1,3.5.79l-1.13,1.69a5.49,5.49,0,0,0-2.9-.74,2.9,2.9,0,0,0-3,1.75c-.28,1.06.5,1.52,2.3,2.16,2.4.84,3.44,2,2.93,3.86-.6,2.24-3.09,3.83-6.69,3.83a8.37,8.37,0,0,1-4-.87Z" transform="translate(-16.42 -23.07)"/><path class="cls-3" d="M522.79,264l3.43-12.8H529L525.54,264Zm7.46-16.39a2.09,2.09,0,0,1-2.14,1.44c-1,0-1.49-.64-1.28-1.44a2.17,2.17,0,0,1,2.12-1.45c1,0,1.52.63,1.3,1.45" transform="translate(-16.42 -23.07)"/><path class="cls-3" d="M535.74,251.22l1,7.19a24.62,24.62,0,0,1,.33,3.28h.1c.62-1.05,1.34-2.11,2.16-3.28l4.87-7.19h2.87L537.74,264h-2.62l-2.33-12.8Z" transform="translate(-16.42 -23.07)"/><path class="cls-3" d="M552.84,258c-.78,3.15,1.26,4.43,4,4.43a13.22,13.22,0,0,0,4.38-.65l0,1.66a15.94,15.94,0,0,1-5.26.8c-4.66,0-6.74-2.59-5.7-6.45a9.25,9.25,0,0,1,8.94-6.89c4.94,0,5.27,3.67,4.64,6a8.64,8.64,0,0,1-.38,1.07Zm8.52-1.67c.42-1.47.29-3.77-2.8-3.77a5.89,5.89,0,0,0-5.24,3.77Z" transform="translate(-16.42 -23.07)"/><path class="cls-3" d="M584.21,246.41a40.48,40.48,0,0,1,5.32-.34c2.7,0,4.52.54,5.51,1.49a3.49,3.49,0,0,1,.85,3.71,6.64,6.64,0,0,1-2.65,3.81,12,12,0,0,1-7,2,11.43,11.43,0,0,1-2.15-.15L582.22,264h-2.73Zm.42,8.59a9.42,9.42,0,0,0,2.2.2c3.28,0,5.65-1.36,6.31-3.81s-1-3.5-4-3.5a13.69,13.69,0,0,0-2.62.2Z" transform="translate(-16.42 -23.07)"/><path class="cls-3" d="M600.23,255.22c.4-1.51.72-2.8.94-4h2.4l-.57,2.52h.12a6.19,6.19,0,0,1,5-2.8,3.41,3.41,0,0,1,.76.08l-.59,2.19a4.84,4.84,0,0,0-.92-.08,5.08,5.08,0,0,0-4.49,3,6.64,6.64,0,0,0-.41,1.07L600.59,264h-2.72Z" transform="translate(-16.42 -23.07)"/><path class="cls-3" d="M624.27,257.52c-1.26,4.73-5.69,6.78-9.35,6.78-4.1,0-6.57-2.54-5.49-6.57a9.44,9.44,0,0,1,9.33-6.79c4.34,0,6.57,2.66,5.51,6.58m-12,.13c-.75,2.8.6,4.91,3.28,4.91a6.51,6.51,0,0,0,5.94-5c.58-2.17,0-4.92-3.23-4.92a6.39,6.39,0,0,0-6,5" transform="translate(-16.42 -23.07)"/><path class="cls-3" d="M647.9,245.26l-4.15,15.45c-.3,1.13-.61,2.43-.76,3.31h-2.47l.47-2.23h-.06a7.73,7.73,0,0,1-5.83,2.51c-3.66,0-5.77-2.61-4.73-6.49a9.11,9.11,0,0,1,8.62-6.87c2.32,0,3.64.92,4,1.94h.06l2-7.62Zm-5.75,11.17a4.14,4.14,0,0,0,.14-1c0-1.48-1.19-2.69-3.25-2.69a6.23,6.23,0,0,0-5.86,4.94c-.7,2.59.23,4.73,3.2,4.73a5.57,5.57,0,0,0,4.78-2.77,4.51,4.51,0,0,0,.39-1Z" transform="translate(-16.42 -23.07)"/><path class="cls-3" d="M665,260.53c-.36,1.31-.64,2.49-.82,3.49h-2.43l.4-2.09h-.07a7.89,7.89,0,0,1-5.63,2.37c-2.38,0-4.93-1.1-3.73-5.6l2-7.48h2.75l-1.89,7.09c-.65,2.43-.22,4.08,2.28,4.08a5.48,5.48,0,0,0,4.19-2.12,3.5,3.5,0,0,0,.57-1.2l2.11-7.85h2.75Z" transform="translate(-16.42 -23.07)"/><path class="cls-3" d="M682,263.53a13.09,13.09,0,0,1-4.54.75c-4.57,0-6.83-2.62-5.79-6.53s5-6.78,10-6.78a9.21,9.21,0,0,1,3.64.65l-1.1,1.8a6.29,6.29,0,0,0-3-.6,6.65,6.65,0,0,0-6.65,4.83c-.79,3,1,4.77,4,4.77a10.26,10.26,0,0,0,3.54-.63Z" transform="translate(-16.42 -23.07)"/><path class="cls-3" d="M695.29,247.56l-1,3.66h3.94l-.48,1.77h-3.94l-1.85,6.9c-.42,1.59-.14,2.5,1.4,2.5a7.56,7.56,0,0,0,1.63-.17l-.33,1.74a8.66,8.66,0,0,1-2.53.32,3.32,3.32,0,0,1-2.71-1c-.59-.7-.57-1.83-.17-3.34l1.87-7h-2.35l.48-1.77h2.35l.82-3.06Z" transform="translate(-16.42 -23.07)"/><path class="cls-3" d="M698.17,261.63a6.6,6.6,0,0,0,3.38.93c2,0,3.17-.84,3.45-1.89s-.32-1.72-2.18-2.36c-2.5-.82-3.44-2.08-3-3.63.55-2.05,3-3.74,6.22-3.74a7.22,7.22,0,0,1,3.51.79l-1.14,1.69a5.49,5.49,0,0,0-2.9-.74,2.9,2.9,0,0,0-3,1.75c-.28,1.06.5,1.52,2.3,2.16,2.4.84,3.45,2,2.94,3.86-.6,2.24-3.1,3.83-6.7,3.83a8.37,8.37,0,0,1-4-.87Z" transform="translate(-16.42 -23.07)"/><path class="cls-4" d="M28.76,45.47c.34,0,.37-.17.07-.45a3.51,3.51,0,0,1-2-2.5c-.26-.12-.42-.08-.49.13a3.21,3.21,0,0,0,2.47,2.82m2.74.2a3.67,3.67,0,0,1-2.13.68,4,4,0,0,1-3.84-4c0-2.6,2.36-5.87,3.7-7.86a35.92,35.92,0,0,1,3,4.58,8.91,8.91,0,0,0-1.76,4.32,3.07,3.07,0,0,0,1.05,2.32M36,43.35a2.7,2.7,0,1,1-5.39,0c0-1.82,1.66-4.11,2.6-5.51C34.07,39,36,41.61,36,43.35M30.77,24.14l7.17,4.06,7.17,4.07V48.53l-7.17,4.06-7.17,4.07-7.18-4.07-7.17-4.06V32.27l7.17-4.07Z" transform="translate(-16.42 -23.07)"/><path class="cls-5" d="M60.61,40.77h1.9V38.89h1.77v1.88h1.9v1.75h-1.9v1.87H62.51V42.52h-1.9Zm2.78-3.39a4.26,4.26,0,1,1-4.31,4.26,4.29,4.29,0,0,1,4.31-4.26M56.67,35.6H60l.33-1.6a.32.32,0,0,1,.29-.29h5.63a.32.32,0,0,1,.29.29l.33,1.6h3.43V47.08H56.67Zm6.82-11.46,7.18,4.06,7.17,4.07V48.53l-7.17,4.06-7.18,4.07-7.17-4.07-7.17-4.06V32.27l7.17-4.07Z" transform="translate(-16.42 -23.07)"/><polygon class="cls-4" points="78.19 0.53 85.36 4.6 92.53 8.66 92.53 16.79 92.53 24.92 85.36 28.99 78.19 33.05 71.01 28.99 63.84 24.92 63.84 16.79 63.84 8.66 71.01 4.6 78.19 0.53"/><path class="cls-5" d="M122.93,38.94l2.7,3.09,3.19-3L125.75,36l2.31,3.11-2.42,2.17ZM120,42.13a.44.44,0,0,1,.61,0,.42.42,0,0,1,0,.6.43.43,0,0,1-.61,0,.41.41,0,0,1,0-.59M121.14,41a.44.44,0,0,1,.59.64.44.44,0,0,1-.61,0,.43.43,0,0,1,0-.6m1.09-1.07a.43.43,0,0,1,.6,0,.42.42,0,0,1,0,.6.43.43,0,0,1-.6,0,.42.42,0,0,1,0-.6M121,43.2a.44.44,0,0,1,.61,0,.42.42,0,0,1,0,.6.43.43,0,0,1-.58-.64m1.14-1.12a.44.44,0,0,1,.61,0,.42.42,0,0,1,0,.6.44.44,0,0,1-.61,0,.42.42,0,0,1,0-.6M123.2,41a.43.43,0,1,1,0,.6.42.42,0,0,1,0-.6m-1.08,3.47a.43.43,0,0,1,.61,0,.42.42,0,0,1,0,.6.44.44,0,0,1-.61,0,.42.42,0,0,1,0-.6m1.14-1.12a.42.42,0,0,1,.6,0,.41.41,0,0,1,0,.59.44.44,0,0,1-.61,0,.42.42,0,0,1,0-.6m1.07-1.07a.44.44,0,0,1,.61,0,.42.42,0,0,1,0,.6.43.43,0,0,1-.58-.63m7.47-6.65a.44.44,0,0,1,.61,0,.42.42,0,0,1,0,.6.43.43,0,0,1-.6,0,.42.42,0,0,1,0-.6m-1.08,1.07a.43.43,0,0,1,.61,0,.41.41,0,0,1,0,.59.42.42,0,0,1-.6,0,.43.43,0,0,1,0-.6m-1.13,1.13a.43.43,0,0,1,.58.63.44.44,0,0,1-.61,0,.42.42,0,0,1,0-.6m1.07-3.47a.44.44,0,0,1,.61,0,.43.43,0,0,1,0,.6.44.44,0,0,1-.61,0,.43.43,0,0,1,0-.6m-1.07,1.07a.43.43,0,0,1,.58.64.44.44,0,0,1-.61,0,.42.42,0,0,1,0-.6m-1.14,1.13a.43.43,0,0,1,.61,0,.42.42,0,0,1,0,.6.44.44,0,0,1-.61,0,.43.43,0,0,1,0-.6m1.24-3.28a.43.43,0,0,1,.61,0,.42.42,0,0,1,0,.6.43.43,0,0,1-.6,0,.42.42,0,0,1,0-.6m-1.07,1.08a.42.42,0,0,1,.6,0,.43.43,0,0,1,0,.6.45.45,0,0,1-.61,0,.42.42,0,0,1,0-.6m-1.14,1.12a.44.44,0,0,1,.61,0,.43.43,0,0,1-.64.57.42.42,0,0,1,0-.6m3.66,7.23a.44.44,0,0,1,.61,0,.42.42,0,0,1,0,.6.45.45,0,0,1-.61,0,.43.43,0,0,1,0-.61m-1.08,1.08a.43.43,0,0,1,.61,0,.42.42,0,0,1,0,.6.43.43,0,0,1-.58-.63m-1.13,1.12a.42.42,0,0,1,.6,0,.43.43,0,0,1,0,.6.44.44,0,0,1-.61,0,.42.42,0,0,1,0-.6M130,41.44a.44.44,0,0,1,.61,0,.43.43,0,0,1,0,.6.44.44,0,0,1-.61,0,.43.43,0,0,1,0-.6m-1.07,1.08a.43.43,0,0,1,.58.63.44.44,0,0,1-.61,0,.42.42,0,0,1,0-.6m-1.14,1.12a.43.43,0,0,1,.61,0,.42.42,0,0,1,0,.6.44.44,0,0,1-.61,0,.42.42,0,0,1,0-.6M129,40.37a.44.44,0,0,1,.61,0,.42.42,0,0,1,0,.6.44.44,0,0,1-.61,0,.42.42,0,0,1,0-.6M128,41.44a.44.44,0,0,1,.61,0,.42.42,0,0,1,0,.6.43.43,0,0,1-.58-.63m-1.13,1.13a.43.43,0,0,1,.61,0,.43.43,0,0,1-.64.57.42.42,0,0,1,0-.6m-2.62-7.51a.44.44,0,1,1,0,.6.43.43,0,0,1,0-.6m-1.07,1.07a.43.43,0,0,1,.58.64.44.44,0,0,1-.61,0,.42.42,0,0,1,0-.6M122,37.25a.45.45,0,0,1,.61,0,.42.42,0,0,1,0,.6.43.43,0,1,1-.58-.64m1.08-3.46a.43.43,0,0,1,.58.64.45.45,0,0,1-.61,0,.42.42,0,0,1,0-.6M122,34.86a.43.43,0,0,1,.61,0,.42.42,0,0,1,0,.6.44.44,0,0,1-.61,0,.43.43,0,0,1,0-.6M120.85,36a.44.44,0,0,1,.61,0,.42.42,0,0,1,0,.6.43.43,0,0,1-.58-.63m1.24-3.28a.44.44,0,0,1,.61,0,.43.43,0,0,1,0,.6.44.44,0,0,1-.61,0,.43.43,0,0,1,0-.6M121,33.78a.44.44,0,0,1,.61,0,.43.43,0,1,1-.64.56.42.42,0,0,1,0-.6m-1.14,1.13a.44.44,0,0,1,.61,0,.42.42,0,0,1,0,.6.44.44,0,0,1-.61,0,.43.43,0,0,1,0-.6m-.63-.41,2.55-2.27a1.34,1.34,0,0,1,1.89.1l2.52,2.74L129,32.59a1.36,1.36,0,0,1,1.9.1l2.3,2.51a1.32,1.32,0,0,1-.1,1.87l-2.79,2.48,2.52,2.75a1.32,1.32,0,0,1-.1,1.87l-2.54,2.27a1.36,1.36,0,0,1-1.9-.1l-2.51-2.75L123,46.08a1.36,1.36,0,0,1-1.89-.1l-2.3-2.51a1.31,1.31,0,0,1,.1-1.87l2.78-2.48-2.51-2.75a1.32,1.32,0,0,1,.09-1.87M126,23.07l7.17,4.07,7.17,4.06V47.46l-7.17,4.07L126,55.59l-7.17-4.06-7.18-4.07V31.2l7.18-4.06Z" transform="translate(-16.42 -23.07)"/><path class="cls-4" d="M143.37,58.78c.73,0,2.07.28,2.07,1.59v1.11h-4.38V59.89c0-.61,1-1.11,2.31-1.11M138.28,60h2.36v.67H139V71.86h8.39V60.64h-1.46V60H148V72.53h-9.75Zm4.87-10.57,7.18,4.06,7.17,4.07V73.78l-7.17,4.07-7.18,4.06L136,77.85l-7.17-4.07V57.53L136,53.46Z" transform="translate(-16.42 -23.07)"/><path class="cls-5" d="M159.9,100.62,154.15,89.9l-2,1.08-.29-.49,3.21-1.8-1-1.62-1.93.94-.12-.31,4.75-2.48,0,.38-2,1.06L156,88.37l3.52-1.69.36.66-2.26.94,5.89,10.63-1.3.88.43,1.23-.2.25-1.21-1-1.19.54Zm-1.17-23.43,7.17,4.06,7.18,4.07v16.26l-7.18,4.06-7.17,4.06-7.17-4.06-7.17-4.06V85.32l7.17-4.07Z" transform="translate(-16.42 -23.07)"/><path class="cls-4" d="M150,117.63c.07-.17.34.15.34.34v5.36h-1.08v-3l-.92,1H137.65l-1.77-1.53v3.43h-1.1v-7.47a.35.35,0,0,1,.35-.34h.4a.35.35,0,0,1,.35.34v3.57h13.41v0s.44-.91.74-1.62m-7.45-14.54,7.17,4.07,7.17,4.07v16.25l-7.17,4.07-7.17,4.06-7.18-4.06-7.17-4.07V111.23l7.17-4.07Z" transform="translate(-16.42 -23.07)"/><path class="cls-5" d="M117,142.65h4.73V138a.42.42,0,0,1,.42-.42h4.68a.42.42,0,0,1,.43.42v4.66H132a.42.42,0,0,1,.43.42v4.63a.42.42,0,0,1-.43.41h-4.72v4.67a.42.42,0,0,1-.43.41h-4.68a.41.41,0,0,1-.42-.41v-4.67H117a.41.41,0,0,1-.42-.41v-4.63a.42.42,0,0,1,.42-.42m7.49-13.53,7.17,4.07,7.17,4.06v16.26l-7.17,4.07-7.17,4.06-7.17-4.06-7.17-4.07V137.25l7.17-4.06Z" transform="translate(-16.42 -23.07)"/><polygon class="cls-5" points="77.87 107.4 85.04 111.46 92.21 115.53 92.21 123.66 92.21 131.78 85.04 135.85 77.87 139.92 70.7 135.85 63.52 131.78 63.52 123.66 63.52 115.53 70.7 111.46 77.87 107.4"/><path class="cls-4" d="M60.45,152.16c.34,0,.36-.17.07-.45a3.51,3.51,0,0,1-2.05-2.5c-.26-.12-.42-.08-.5.13a3.27,3.27,0,0,0,2.48,2.82m2.74.2a3.67,3.67,0,0,1-2.13.67,3.94,3.94,0,0,1-3.85-4c0-2.6,2.37-5.88,3.71-7.87a35.42,35.42,0,0,1,3,4.59A8.86,8.86,0,0,0,62.13,150a3.07,3.07,0,0,0,1.06,2.33m4.5-2.33a2.69,2.69,0,1,1-5.38,0c0-1.82,1.65-4.11,2.59-5.5.85,1.16,2.79,3.77,2.79,5.5m-4.64-18.74,7.17,4.07,7.17,4.06v16.26l-7.17,4.07-7.17,4.06-7.17-4.06-7.18-4.07V139.42l7.18-4.06Z" transform="translate(-16.42 -23.07)"/><path class="cls-5" d="M49.82,129.37l-5.75-10.72-2,1.08-.29-.49L45,117.43l-1-1.62-1.94,1-.11-.32L46.71,114l0,.38-2,1.06,1.16,1.71,3.51-1.69.37.65-2.26,1,5.89,10.62-1.3.88.43,1.24-.21.25-1.21-1-1.18.53Zm-2.21-23.64,7.17,4.07L62,113.87v16.25l-7.17,4.07-7.17,4.06-7.18-4.06-7.17-4.07V113.87l7.17-4.07Z" transform="translate(-16.42 -23.07)"/><polygon class="cls-4" points="15.27 108.8 22.44 112.87 29.61 116.93 29.61 125.06 29.61 133.19 22.44 137.26 15.27 141.32 8.1 137.26 0.92 133.19 0.92 125.06 0.92 116.93 8.1 112.87 15.27 108.8"/><path class="cls-5" d="M45,174l2.7,3.09,3.19-3L47.84,171l2.31,3.11-2.41,2.17Zm-2.92,3.19a.44.44,0,0,1,.61,0,.42.42,0,0,1,0,.6.43.43,0,1,1-.58-.63m1.14-1.12a.43.43,0,1,1,.58.63.44.44,0,0,1-.61,0,.42.42,0,0,1,0-.6M44.31,175a.44.44,0,1,1,0,.6.43.43,0,0,1,0-.6m-1.24,3.28a.44.44,0,0,1,.61,0,.42.42,0,0,1,0,.6.43.43,0,1,1-.58-.63m1.14-1.13a.43.43,0,0,1,.61,0,.42.42,0,0,1,0,.6.44.44,0,0,1-.61,0,.42.42,0,0,1,0-.6m1.08-1.07a.44.44,0,0,1,.61,0,.43.43,0,0,1,0,.6.44.44,0,0,1-.61,0,.42.42,0,0,1,0-.6m-1.08,3.47a.44.44,0,0,1,.61,0,.43.43,0,0,1,0,.6.44.44,0,0,1-.61,0,.42.42,0,0,1,0-.6m1.14-1.13a.43.43,0,1,1,0,.6.42.42,0,0,1,0-.6m1.07-1.07a.44.44,0,0,1,.61,0,.42.42,0,0,1,0,.6.43.43,0,0,1-.6,0,.42.42,0,0,1,0-.6m7.47-6.65a.44.44,0,0,1,.61,0,.42.42,0,0,1,0,.6.43.43,0,0,1-.6,0,.42.42,0,0,1,0-.6m-1.07,1.07a.43.43,0,0,1,.6,0,.42.42,0,0,1,0,.6.43.43,0,0,1-.57-.64m-1.14,1.13a.44.44,0,0,1,.61,0,.45.45,0,0,1,0,.61.44.44,0,0,1-.61,0,.42.42,0,0,1,0-.6m1.07-3.47a.46.46,0,0,1,.62,0,.45.45,0,0,1,0,.61.44.44,0,0,1-.61,0,.43.43,0,0,1,0-.6m-1.07,1.07a.44.44,0,0,1,.61,0,.43.43,0,0,1,0,.6.44.44,0,0,1-.61,0,.43.43,0,0,1,0-.61m-1.14,1.13a.43.43,0,0,1,.61,0,.41.41,0,0,1,0,.59.43.43,0,0,1-.6,0,.42.42,0,0,1,0-.6m1.24-3.28a.44.44,0,0,1,.61,0,.42.42,0,1,1-.63.56.43.43,0,0,1,0-.6m-1.07,1.08a.43.43,0,0,1,.58.63.44.44,0,0,1-.61,0,.42.42,0,0,1,0-.6m-1.14,1.12a.44.44,0,0,1,.61,0,.42.42,0,0,1,0,.6.44.44,0,0,1-.61,0,.42.42,0,0,1,0-.6m3.66,7.24a.43.43,0,0,1,.58.64.45.45,0,0,1-.61,0,.42.42,0,0,1,0-.6m-1.08,1.07a.44.44,0,0,1,.61,0,.42.42,0,1,1-.61,0M51,180a.44.44,0,0,1,.61,0,.43.43,0,0,1,0,.6.44.44,0,0,1-.61,0,.42.42,0,0,1,0-.6m1.08-3.47a.43.43,0,1,1,0,.6.42.42,0,0,1,0-.6M51,177.58a.44.44,0,0,1,.61,0,.43.43,0,0,1-.64.57.42.42,0,0,1,0-.6m-1.14,1.12a.45.45,0,0,1,.61,0,.42.42,0,0,1,0,.6.44.44,0,0,1-.61,0,.43.43,0,0,1,0-.61m1.24-3.27a.43.43,0,0,1,.61,0,.42.42,0,0,1,0,.6.43.43,0,0,1-.58-.64M50,176.5a.44.44,0,0,1,.61,0,.43.43,0,0,1,0,.6.45.45,0,0,1-.61,0,.44.44,0,0,1,0-.61m-1.13,1.13a.44.44,0,0,1,.61,0,.42.42,0,0,1,0,.6.44.44,0,0,1-.61,0,.42.42,0,0,1,0-.6m-2.61-7.51a.43.43,0,0,1,.58.64.44.44,0,0,1-.61,0,.42.42,0,0,1,0-.6m-1.08,1.08a.43.43,0,0,1,.58.63.43.43,0,0,1-.61,0,.41.41,0,0,1,0-.59m-1.14,1.12a.45.45,0,0,1,.61,0,.42.42,0,1,1-.63.57.42.42,0,0,1,0-.6m1.08-3.47a.43.43,0,0,1,.61,0,.42.42,0,0,1,0,.6.43.43,0,0,1-.61,0,.42.42,0,0,1,0-.6m-1.08,1.07a.44.44,0,0,1,.61,0,.42.42,0,0,1,0,.6.43.43,0,0,1-.58-.64M43,171.05a.42.42,0,0,1,.6,0,.41.41,0,0,1,0,.59.43.43,0,0,1-.61,0,.42.42,0,0,1,0-.6m1.24-3.28a.45.45,0,0,1,.61,0,.43.43,0,0,1-.64.57.43.43,0,0,1,0-.61m-1.08,1.08a.44.44,0,0,1,.61,0,.42.42,0,0,1,0,.6.44.44,0,0,1-.61,0,.42.42,0,0,1,0-.6M42,170a.44.44,0,0,1,.61,0,.42.42,0,0,1,0,.6.43.43,0,0,1-.61,0,.44.44,0,0,1,0-.6m-.62-.41,2.54-2.27a1.37,1.37,0,0,1,1.9.1l2.51,2.75,2.79-2.48a1.35,1.35,0,0,1,1.89.09l2.3,2.52a1.32,1.32,0,0,1-.1,1.87l-2.78,2.48,2.51,2.75a1.32,1.32,0,0,1-.1,1.87l-2.54,2.26a1.36,1.36,0,0,1-1.9-.09l-2.51-2.75-2.79,2.48a1.35,1.35,0,0,1-1.89-.1l-2.3-2.51a1.32,1.32,0,0,1,.1-1.87l2.78-2.48-2.51-2.75a1.31,1.31,0,0,1,.1-1.87m6.73-11.42,7.17,4.06,7.18,4.07v16.26l-7.18,4.06-7.17,4.07-7.17-4.07-7.17-4.06V166.27l7.17-4.07Z" transform="translate(-16.42 -23.07)"/><path class="cls-4" d="M39.85,198.23c.08-.17.35.16.35.34v5.36H39.12v-3l-.93,1H27.48l-1.78-1.53v3.42H24.6v-7.46A.35.35,0,0,1,25,196h.4a.35.35,0,0,1,.35.34v3.56H39.12v0s.44-.91.73-1.62M32.4,183.7l7.17,4.06,7.17,4.07v16.26l-7.17,4.06-7.17,4.07-7.17-4.07-7.17-4.06V191.83l7.17-4.07Z" transform="translate(-16.42 -23.07)"/><path class="cls-5" d="M40.11,230.55h4.73v-4.67a.42.42,0,0,1,.42-.41H50a.42.42,0,0,1,.42.41v4.67H55.1a.42.42,0,0,1,.42.42v4.62a.42.42,0,0,1-.42.42H50.37v4.66a.42.42,0,0,1-.42.42H45.26a.42.42,0,0,1-.42-.42V236H40.11a.42.42,0,0,1-.42-.42V231a.42.42,0,0,1,.42-.42M47.61,217l7.17,4.06L62,225.15v16.26l-7.17,4.06-7.17,4.07-7.18-4.07-7.17-4.06V225.15l7.17-4.07Z" transform="translate(-16.42 -23.07)"/><path class="cls-4" d="M31.45,89.33c.74,0,2.08.28,2.07,1.59V92H29.15v-1.6c0-.6,1-1.1,2.3-1.1m-5.08,1.19h2.35v.67H27v11.22h8.4V91.19H34v-.67h2.14v12.55H26.37Zm4.87-10.58L38.41,84l7.17,4.06v16.26l-7.17,4.07-7.17,4.06-7.17-4.06-7.18-4.07V88.07L24.07,84Z" transform="translate(-16.42 -23.07)"/><polygon class="cls-5" points="30.68 28.14 37.85 32.21 45.02 36.27 45.02 44.4 45.02 52.54 37.85 56.6 30.68 60.67 23.5 56.6 16.33 52.54 16.33 44.4 16.33 36.27 23.5 32.21 30.68 28.14"/><path class="cls-6" d="M718.44,87.67V76h3.92l2.32,8L727,76h3.92V87.67h-2.41V78.48l-2.55,9.19h-2.51l-2.54-9.19v9.19Zm.27-19.07c-8.08,0-14.63,5.92-14.63,13.23s6.55,13.24,14.63,13.24,14.64-5.93,14.64-13.24S726.8,68.6,718.71,68.6m0-2.59c9.67,0,17.51,7.08,17.51,15.82s-7.84,15.82-17.51,15.82-17.5-7.08-17.5-15.82S709.05,66,718.71,66m-8.35,21.66V78h-3.83V76h10.25v2H713v9.7Z" transform="translate(-16.42 -23.07)"/><path class="cls-7" d="M675.36,213.31v.1c-.05.45-.08.77-.08,1a3.45,3.45,0,0,0,1.54,3.08,9,9,0,0,0,4.79,1,7.6,7.6,0,0,0,3.86-.83,2.57,2.57,0,0,0,1.4-2.28c0-1.46-1.84-2.64-5.53-3.56l-1-.24c-.24-.07-.58-.16-1-.26q-8.79-2.19-11.3-4.77a8.18,8.18,0,0,1-1.84-3,11.37,11.37,0,0,1-.62-3.86,9,9,0,0,1,4-8q4-2.74,11.82-2.74t11.39,2.57c2.46,1.71,3.7,4.35,3.7,7.91v.41h-9.7v-.17a3.08,3.08,0,0,0-1.47-2.77,8,8,0,0,0-4.31-1,7,7,0,0,0-3.41.68,2.11,2.11,0,0,0-1.2,1.92q0,2.22,6.35,3.78l1.92.45a48.61,48.61,0,0,1,6.44,2,14.18,14.18,0,0,1,3.3,2,8.52,8.52,0,0,1,2.4,3.27,11,11,0,0,1,.84,4.34,9.38,9.38,0,0,1-4.4,8.32q-4.39,2.91-12.67,2.91c-5.44,0-9.39-.93-11.82-2.8s-3.65-4.87-3.65-9v-.53ZM625.66,225V189.56h27.67v7.64H636.05v5.67h16v7.54h-16v6.89H654V225Zm-24.28-35.48H612V225h-10.6Zm-23.9,11.78a6.45,6.45,0,0,0-2.1-3.88,6.54,6.54,0,0,0-4.23-1.25,8.09,8.09,0,0,0-6.68,3.09c-1.64,2.06-2.47,4.86-2.47,8.39s.87,6.14,2.6,8,4.23,2.77,7.49,2.77a16.56,16.56,0,0,0,3.07-.31,23.88,23.88,0,0,0,3.36-.94V212h-8v-6.8h17.59v17.93a72.07,72.07,0,0,1-8.67,1.9,52.91,52.91,0,0,1-8,.62q-10.16,0-15.2-4.39c-3.37-2.93-5-7.34-5-13.27s1.79-10.77,5.38-14.06S565.31,189,572,189q7.77,0,11.89,3.13t4.36,9.24ZM520,225.63q-9.21,0-14-4.71t-4.79-13.77q0-8.79,5.07-13.52c3.36-3.14,8.21-4.71,14.51-4.71s11,1.58,14.26,4.76,4.91,7.8,4.91,13.86S538.28,218,534.91,221s-8.33,4.59-14.91,4.59m-8-18c0,3.6.72,6.31,2.14,8.13a7.65,7.65,0,0,0,6.39,2.72q4.32,0,6.5-2.67t2.17-7.94q0-5.72-2.23-8.72a7.62,7.62,0,0,0-6.52-3,7.27,7.27,0,0,0-6.22,3c-1.48,2-2.23,4.83-2.23,8.47m-20.77,9.71V225H464.39V189.56H475V217.3ZM432,225.63q-9.21,0-14-4.71t-4.79-13.77q0-8.79,5.06-13.52t14.51-4.71q9.38,0,14.27,4.76T452,207.54q0,8.91-5,13.5T432,225.63m-8-18c0,3.6.72,6.31,2.14,8.13a7.64,7.64,0,0,0,6.39,2.72q4.32,0,6.5-2.67t2.18-7.94q0-5.72-2.24-8.72a7.62,7.62,0,0,0-6.52-3,7.26,7.26,0,0,0-6.22,3c-1.48,2-2.23,4.83-2.23,8.47M363.62,225V189.56h13.16l14.08,23.81V189.56h10V225H387.19l-13.61-23.88V225Zm-49,0V189.56h10.56v13.8h14.27v-13.8H350V225h-10.6V211.15H325.15V225Zm-23.88-23.55a6.31,6.31,0,0,0-1.91-3.88,5.86,5.86,0,0,0-4-1.3,7.3,7.3,0,0,0-6.22,2.93q-2.18,2.92-2.18,8.32,0,5.19,2.15,8a7.26,7.26,0,0,0,6.12,2.79,6.62,6.62,0,0,0,4.67-1.6,7.59,7.59,0,0,0,2.15-4.71h11q-.59,7-5.1,10.28t-13.48,3.32q-8.65,0-13.49-4.64t-4.83-13q0-9.12,5-14.06c3.32-3.29,8.08-4.94,14.23-4.94q8,0,12.27,3.13c2.82,2.1,4.36,5.21,4.59,9.34ZM226.13,225V189.56H253.8v7.64H236.52v5.67h16v7.54h-16v6.89h17.93V225Zm-33.72,0V197.35H180.86v-7.79h33.71v7.79H203V225Z" transform="translate(-16.42 -23.07)"/></g></g></g></svg>